#!OML:ASF E:/inclinewalkrobotboard/Project1/Captureday1/Session1/subject1.ASF
:FULLY-SPECIFIED
:DEGREES
51
root 0 0 0 1.313574677934934 -3.854148817084752 1.832618324867993
lowerback 12.16919909620348 0.857658099656833 -0.05990387464226732
upperback -4.386079162711153 1.0949680180830148 -0.5683031603279639
thorax -11.618811615787294 0.49750973957217365 -0.8201955182151932
lowerneck -6.009753739476215 1.5941671136782685 4.46382637733555
upperneck 18.38843404488789 3.0994538272002794 -8.197438558904352
head 6.743528991201574 1.1344699456274112 -3.143274329339329
rclavicle 1.928438854689211E-15 -4.041921315339092E-16
rhumerus 21.252135119053925 15.770553256838264 -47.63691997428397
rradius 73.64613119382075
rwrist 26.82356646144065
rhand -34.66002158760233 -57.663373587195615
rfingers 7.125020000000014
rthumb -7.800971424172642 -87.60735089954318
lclavicle -4.3717051892482634E-16 -1.0184167205424463E-15
lhumerus 22.123815957416376 -12.528630591669263 43.86435791534929
lradius 71.11708949414111
lwrist -23.560732384316943
lhand -44.62157448424704 -71.1325242500552
lfingers 7.125020000000031
lthumb -17.401061146304126 -41.83454058915733
rfemur -25.22970373983259 -2.219110560534097 17.200699345858585
rtibia 54.19909918830747
rfoot -29.69569325399443 -16.764628057014914
rtoes -18.436002358374918
lfemur -26.488937435434657 2.2921332117733546 -17.628777753786196
ltibia 53.33317502048905
lfoot -32.59397852474027 -2.617707327103658
ltoes -21.01451005056515
52
root 0 0 0 1.3134154361058505 -3.8536138585133273 1.832527078383749
lowerback 12.169204503849329 0.85762049475106 -0.059811957858947995
upperback -4.38614958254823 1.0949333071697653 -0.5683030536166159
thorax -11.618902947556068 0.4974859786727429 -0.8202420485764421
lowerneck -6.00995697084098 1.5942653655190078 4.463998634315662
upperneck 18.388615238756902 3.099574182031616 -8.197630354484215
head 6.743608070468625 1.1345154456336353 -3.143350502547296
rclavicle 1.9318474851718317E-15 -4.027576159355061E-16
rhumerus 21.252809738744148 15.771178282089304 -47.637200658652795
rradius 73.64659603871814
rwrist 26.82325293584642
rhand -34.66034696893981 -57.66378261241709
rfingers 7.125020000000014
rthumb -7.801238179605571 -87.60789831904168
lclavicle -4.3852413953078087E-16 -1.0199729373682722E-15
lhumerus 22.125255924169473 -12.530007347354656 43.863779695242705
lradius 71.11857028597177
lwrist -23.56071372280384
lhand -44.62152156199649 -71.13229972538944
lfingers 7.125020000000031
lthumb -17.401022286372875 -41.83437156587905
rfemur -25.231625151351 -2.21847328261953 17.201383123077775
rtibia 54.19659892940332
rfoot -29.69884571080148 -16.767195263937946
rtoes -18.43140678582382
lfemur -26.488183667977196 2.291859201157236 -17.627664312194433
ltibia 53.33323218761201
lfoot -32.59676686711485 -2.6161720880869304
ltoes -21.019108638360578
53
root 0 0 0 1.3137427508250399 -3.8534302339046373 1.8325863674083505
lowerback 12.169240932257019 0.8576354602214041 -0.05986062739654574
upperback -4.3861882516857085 1.0949448787738056 -0.56837775276937
thorax -11.618963783304393 0.49749292275792467 -0.8202963919016637
lowerneck -6.010428489525371 1.5943016654225077 4.463932052809179
upperneck 18.388812468706732 3.0995928544732427 -8.19741280904209
head 6.74375369151374 1.134532750334602 -3.143270320857824
rclavicle 1.932050385806978E-15 -4.031875106305965E-16
rhumerus 21.253132862972635 15.771553606148819 -47.637484427705694
rradius 73.64690528263132
rwrist 26.822948294225064
rhand -34.66066426439356 -57.66395514069776
rfingers 7.125020000000014
rthumb -7.8015495080475095 -87.60809984305851
lclavicle -4.3758314745781096E-16 -1.0196583624597637E-15
lhumerus 22.12470432204313 -12.52944870389453 43.863970835143064
lradius 71.11800799090068
lwrist -23.56070979019802
lhand -44.621627462465774 -71.13311830593568
lfingers 7.125020000000031
lthumb -17.4011387911206 -41.83511846473888
rfemur -25.23126759477369 -2.2181264557595775 17.201044018484886
rtibia 54.19616579998291
rfoot -29.69893481445125 -16.767304398087173
rtoes -18.4324992005645
lfemur -26.488373986469714 2.2910995648594845 -17.62742903375012
ltibia 53.330860031271826
lfoot -32.598954295321086 -2.614575124534033
ltoes -21.019550493719315
54
root 0 0 0 1.3136412883951745 -3.855775334773587 1.8329310761077449
lowerback 12.169091521568514 0.8579245624655175 -0.06019574983288023
upperback -4.385619437256219 1.0952665745294035 -0.5682615349728469
thorax -11.618204784297323 0.4976868349332124 -0.8200330566765344
lowerneck -6.0090645383988335 1.5936160133674127 4.463360653382629
upperneck 18.387253725967703 3.0987877289329226 -8.197021508002901
head 6.743080995014982 1.1341812533753197 -3.143151096179233
rclavicle 1.9194525137562993E-15 -3.9719008722021208E-16
rhumerus 21.252545141836066 15.771370613022489 -47.638665253669636
rradius 73.6459346280791
rwrist 26.82217605814043
rhand -34.659974585566005 -57.662202889824876
rfingers 7.125020000000014
rthumb -7.800607494182577 -87.60619419140494
lclavicle -4.4296704686226894E-16 -1.0185788938687866E-15
lhumerus 22.12628725776677 -12.527905479915692 43.86368631848783
lradius 71.11881151465842
lwrist -23.560895751125827
lhand -44.621810507105636 -71.13555020936948
lfingers 7.125020000000031
lthumb -17.401313381457793 -41.83854300816242
rfemur -25.232127586200892 -2.217149665267014 17.20175212362774
rtibia 54.193878319616516
rfoot -29.696253611993868 -16.768571714527933
rtoes -18.430419641923624
lfemur -26.495083729138106 2.2918132696861178 -17.631349135814606
ltibia 53.3299182659064
lfoot -32.599976724039095 -2.6124258566482976
ltoes -21.0068543698436
55
root 0 0 0 1.3139452587469513 -3.853945994241461 1.8326508165709572
lowerback 12.169265991349775 0.8577046627218534 -0.05984748901706172
upperback -4.386090417390278 1.09503965312042 -0.568388039720983
thorax -11.61885921705267 0.49754193950701175 -0.8203304119704489
lowerneck -6.0102802475875885 1.5941613494630935 4.463803437584769
upperneck 18.38850421572711 3.099413642321662 -8.197259924864783
head 6.743640208207157 1.134462774219677 -3.1432217928052024
rclavicle 1.93230897314503E-15 -4.0346059699308266E-16
rhumerus 21.253300582309024 15.771837946507242 -47.63768259464481
rradius 73.6470184652143
rwrist 26.82277935739558
rhand -34.66051750157124 -57.66368904562371
rfingers 7.125020000000014
rthumb -7.801414967859815 -87.60788539414378
lclavicle -4.3602372861648894E-16 -1.0194878775300906E-15
lhumerus 22.124263576434927 -12.529100643885075 43.864144966607974
lradius 71.11752373409897
lwrist -23.56065110350815
lhand -44.62161753664597 -71.13284573582362
lfingers 7.125020000000031
lthumb -17.40112962295398 -41.8348423472482
rfemur -25.23130002558203 -2.218140866948489 17.200794757633556
rtibia 54.19634048108342
rfoot -29.69908706994184 -16.767283802365945
rtoes -18.432642431792083
lfemur -26.48885252024512 2.2908836971210214 -17.627690297376006
ltibia 53.32995825649773
lfoot -32.60037122175777 -2.612897814376786
ltoes -21.017219813030998
